<svg height="100px" width="100px" xmlns="http://www.w3.org/2000/svg" version="1.1">
<path transform="scale(0.42596331603) translate(0,-816.60215)" 
d="m 16.827608,1003.8799 95.459422,47.9823 c 1.68109,
-9.0605 1.12345,-20.836 9.09137,-22.981 -0.37524,-29.55123 
15.14538,-18.692 26.76904,-17.9302 10.99806,0.2838 23.45462,
0.1315 27.27412,-10.1015 l 0,-5.05078 c -1.17069,-3.36835 
-2.25917,-13.59662 5.55584,-16.66752 -0.48691,-3.58063 -0.91797,
-7.26006 -3.53554,-7.07107 l 0,-2.46225 c 0.37034,-0.22796 
5.44906,-1.40635 4.54569,-7.1342 -2.42853,1.62144 -3.71595,
-9.19145 -0.50507,-10.6066 30.34837,-7.17328 12.61761,-17.73826 
-1.51523,-43.94163 -5.79974,-5.21912 -3.91764,-10.43825 1.01015,
-15.65737 -2.33436,-12.49956 -7.27001,-26.73331 -13.63705,
-41.92133 -13.56886,-27.39226 -94.145252,-52.46138 -137.885842,
-12.12183 -25.53449,19.81017 -37.80786,46.25091 -21.71827,
86.87312 19.15637,34.71088 18.09239,58.83014 9.09137,78.79186 z"/>
<path  style="fill:white;" transform="scale(0.03) translate(500, 485.714)"
d="M1024 640q0 106 -75 181t-181 75t-181 -75t-75 -181t75 -181t181 
-75t181 75t75 181zM1536 749v-222q0 -12 -8 -23t-20 -13l-185 
-28q-19 -54 -39 -91q35 -50 107 -138q10 -12 10 -25t-9 -23q-27 
-37 -99 -108t-94 -71q-12 0 -26 9l-138 108q-44 -23 -91 -38
q-16 -136 -29 -186q-7 -28 -36 -28h-222q-14 0 -24.5 8.5t-11.5 
21.5l-28 184q-49 16 -90 37l-141 -107q-10 -9 -25 -9q-14 0 -25 
11q-126 114 -165 168q-7 10 -7 23q0 12 8 23q15 21 51 66.5t54 
70.5q-27 50 -41 99l-183 27q-13 2 -21 12.5t-8 23.5v222q0 12 8 
23t19 13 l186 28q14 46 39 92q-40 57 -107 138q-10 12 -10 24q0 
10 9 23q26 36 98.5 107.5t94.5 71.5q13 0 26 -10l138 -107q44 
23 91 38q16 136 29 186q7 28 36 28h222q14 0 24.5 -8.5t11.5 
-21.5l28 -184q49 -16 90 -37l142 107q9 9 24 9q13 0 25 -10q129 
-119 165 -170q7 -8 7 -22 q0 -12 -8 -23q-15 -21 -51 -66.5t-54 
-70.5q26 -50 41 -98l183 -28q13 -2 21 -12.5t8 -23.5z"  />
</svg>


